<?xml version="1.0" encoding="utf-8"?>
<!-- Generator: Moho 14.1 build 20231027 -->
<!DOCTYPE svg PUBLIC "-//W3C//DTD SVG 1.1//EN" "http://www.w3.org/Graphics/SVG/1.1/DTD/svg11.dtd">
<svg version="1.1" id="Frame_0" xmlns="http://www.w3.org/2000/svg" xmlns:xlink="http://www.w3.org/1999/xlink" width="3840px" height="2160px">
<g id="Untitled">
<path id="S1" fill="#ffffff" fill-rule="evenodd" stroke="none" d="M 2666.332 1327.626 C 2666.343 1327.602 2739.087 1166.397 2776.697 1083.057 C 2776.731 1083.057 3120.118 1083.283 3120.153 1083.283 C 3176.536 1216.329 3223.749 1327.738 3223.762 1327.770 C 3223.788 1327.770 3478.428 1327.626 3478.454 1327.626 C 3478.414 1327.531 3082.553 373.588 3082.474 373.518 C 3082.370 373.516 2655.184 1327.531 2655.141 1327.626 C 2655.142 1327.626 2666.331 1327.626 2666.332 1327.626 M 2953.773 690.651 C 2993.460 784.307 3059.068 939.136 3117.052 1075.973 C 3117.018 1075.974 2779.831 1076.179 2779.797 1076.179 C 2826.456 972.780 2893.803 823.543 2953.773 690.651 Z"/>
<path id="S2" fill="#ffffff" fill-rule="evenodd" stroke="none" d="M 2129.208 1313.171 C 2129.208 1313.124 2129.208 844.654 2129.208 844.607 C 2129.216 844.607 2207.924 844.607 2207.932 844.607 C 2207.950 844.630 2388.427 820.537 2390.779 1075.173 C 2393.177 1334.879 2207.950 1313.147 2207.932 1313.171 C 2207.924 1313.171 2129.216 1313.171 2129.208 1313.171 M 2129.208 832.267 C 2129.208 832.223 2129.208 389.352 2129.208 389.308 C 2129.216 389.308 2207.924 389.308 2207.932 389.308 C 2207.947 389.329 2352.019 377.140 2357.146 601.702 C 2362.570 839.299 2207.947 832.244 2207.932 832.267 C 2207.924 832.267 2129.216 832.267 2129.208 832.267 M 1884.906 1327.626 C 1884.906 1327.531 1884.906 378.151 1884.906 378.056 C 1884.940 378.056 2218.104 378.056 2218.137 378.056 C 2218.160 378.059 2375.241 372.148 2449.031 405.283 C 2503.539 429.759 2599.136 479.649 2608.285 602.954 C 2615.607 701.639 2563.396 741.834 2510.815 781.201 C 2465.093 815.434 2334.947 835.649 2334.929 835.655 C 2334.945 835.659 2441.111 849.111 2493.854 875.099 C 2568.840 912.046 2651.541 957.465 2640.686 1101.106 C 2630.179 1240.149 2519.253 1279.870 2448.702 1302.658 C 2382.496 1324.043 2218.160 1327.624 2218.137 1327.626 C 2218.104 1327.626 1884.940 1327.626 1884.906 1327.626 Z"/>
<path id="S1_2" fill="#ffffff" fill-rule="evenodd" stroke="none" d="M 536.708 1579.156 C 564.758 1579.157 591.687 1586.382 608.163 1600.818 C 600.056 1609.058 591.956 1617.303 583.852 1625.540 C 572.694 1616.165 556.853 1611.477 536.318 1611.475 C 524.910 1611.473 516.162 1613.749 510.077 1618.312 C 504.242 1622.623 501.323 1628.586 501.330 1636.196 C 501.336 1643.033 503.376 1648.216 507.428 1651.760 C 511.739 1655.057 518.579 1657.233 527.961 1658.249 C 536.960 1659.011 545.961 1659.752 554.962 1660.507 C 595.518 1664.041 615.784 1682.319 615.781 1715.269 C 615.779 1734.781 608.309 1749.859 593.359 1760.503 C 578.656 1771.153 559.388 1776.477 535.558 1776.478 C 500.336 1776.480 473.353 1767.230 454.597 1748.738 C 463.084 1740.245 471.569 1731.749 480.058 1723.256 C 493.239 1736.684 511.736 1743.402 535.558 1743.399 C 548.230 1743.398 558.366 1741.240 565.968 1736.931 C 573.823 1732.370 577.751 1725.658 577.754 1716.788 C 577.758 1703.362 569.151 1695.750 551.923 1693.976 C 541.650 1693.089 531.375 1692.215 521.103 1691.328 C 483.082 1687.784 464.079 1670.023 464.083 1638.085 C 464.085 1619.582 470.927 1605.133 484.616 1594.740 C 498.304 1584.348 515.669 1579.155 536.708 1579.156 Z"/>
<path id="S2_2" fill="#ffffff" fill-rule="evenodd" stroke="none" d="M 1414.187 1503.512 C 1414.185 1532.707 1414.183 1568.385 1414.187 1600.818 C 1427.104 1586.378 1443.948 1579.159 1464.719 1579.156 C 1484.247 1579.153 1500.100 1584.983 1512.273 1596.650 C 1525.200 1609.324 1531.658 1627.448 1531.656 1651.021 C 1531.652 1692.081 1531.655 1733.140 1531.656 1774.199 C 1518.732 1774.199 1505.811 1774.198 1492.890 1774.199 C 1492.888 1735.036 1492.896 1695.873 1492.890 1656.709 C 1492.888 1642.259 1489.333 1631.487 1482.233 1624.390 C 1475.136 1617.297 1465.760 1613.752 1454.103 1613.754 C 1442.445 1613.755 1432.816 1617.431 1425.213 1624.780 C 1417.865 1631.875 1414.188 1642.518 1414.187 1656.709 C 1414.184 1695.873 1414.186 1735.036 1414.187 1774.199 C 1401.257 1774.199 1388.328 1774.199 1375.400 1774.199 C 1375.401 1683.971 1375.401 1593.743 1375.400 1503.512 C 1388.328 1503.515 1401.257 1503.515 1414.187 1503.512 Z"/>
<path id="S3_3" fill="#ffffff" fill-rule="evenodd" stroke="none" d="M 2299.612 1633.527 C 2302.911 1621.364 2308.879 1610.857 2317.496 1601.988 C 2330.731 1588.302 2351.332 1579.155 2374.906 1579.156 C 2398.731 1579.156 2417.984 1586.783 2432.687 1601.988 C 2441.304 1610.857 2447.271 1621.364 2450.571 1633.527 C 2453.870 1645.439 2455.519 1660.141 2455.519 1677.632 C 2455.519 1695.372 2453.868 1710.197 2450.571 1722.107 C 2447.272 1734.022 2441.309 1744.540 2432.687 1753.666 C 2417.986 1768.870 2398.728 1776.477 2374.906 1776.478 C 2351.335 1776.479 2332.200 1768.872 2317.496 1753.666 C 2308.875 1744.541 2302.911 1734.022 2299.612 1722.107 C 2296.315 1710.197 2294.664 1695.372 2294.664 1677.632 C 2294.663 1660.141 2296.312 1645.439 2299.612 1633.527 M 2416.712 1677.632 C 2416.713 1651.270 2412.277 1633.652 2403.406 1624.780 C 2396.794 1618.167 2386.561 1613.755 2374.906 1613.754 C 2363.502 1613.753 2354.125 1617.431 2346.777 1624.780 C 2337.904 1633.652 2333.469 1651.270 2333.471 1677.632 C 2333.472 1703.984 2337.906 1721.596 2346.777 1730.464 C 2354.379 1738.064 2363.757 1741.860 2374.906 1741.859 C 2386.306 1741.858 2395.806 1738.062 2403.406 1730.464 C 2412.276 1721.595 2416.710 1703.985 2416.712 1677.632 Z"/>
<path id="S4" fill="#ffffff" fill-rule="evenodd" stroke="none" d="M 3258.463 1581.414 C 3258.464 1588.274 3258.460 1595.132 3258.463 1601.988 C 3269.865 1588.296 3288.112 1579.156 3309.406 1579.156 C 3329.432 1579.155 3345.143 1584.872 3356.549 1596.280 C 3370.994 1610.981 3378.231 1638.095 3378.232 1677.632 C 3378.233 1717.427 3370.999 1744.674 3356.549 1759.374 C 3345.145 1770.776 3329.561 1776.478 3309.796 1776.478 C 3288.249 1776.478 3271.391 1769.128 3259.223 1754.425 C 3259.222 1786.997 3259.223 1819.569 3259.223 1852.142 C 3246.300 1852.141 3233.378 1852.141 3220.456 1852.142 C 3220.455 1761.899 3220.455 1671.658 3220.456 1581.414 C 3233.125 1581.417 3245.794 1581.419 3258.463 1581.414 M 3332.587 1633.116 C 3330.056 1626.791 3326.000 1621.990 3320.432 1618.702 C 3335.382 1639.466 3337.147 1646.073 3337.905 1652.931 C 3338.916 1659.771 3339.425 1668.005 3339.425 1677.632 C 3339.425 1687.267 3338.920 1695.508 3337.905 1702.354 C 3337.146 1709.189 3335.370 1715.894 3332.587 1722.476 C 3326.008 1733.637 3330.055 1728.813 3332.587 1722.476 C 3314.853 1740.228 3307.877 1741.860 3299.509 1741.859 C 3291.145 1741.859 3284.046 1740.225 3278.216 1736.931 C 3268.456 1728.816 3272.638 1733.636 3278.216 1736.931 C 3263.143 1715.895 3261.384 1709.187 3260.373 1702.354 C 3259.613 1695.507 3259.222 1687.268 3259.223 1677.632 C 3259.223 1668.005 3259.617 1659.771 3260.373 1652.931 C 3263.133 1639.465 3261.384 1646.075 3260.373 1652.931 C 3268.453 1626.788 3272.646 1621.991 3278.216 1618.702 C 3283.795 1615.409 3290.890 1613.754 3299.509 1613.754 C 3307.879 1613.753 3315.410 1615.736 3320.432 1618.702 Z"/>
<path id="S1_3" fill="#ffffff" fill-rule="evenodd" stroke="none" d="M 383.758 1446.081 C 384.064 1446.081 3441.887 1446.081 3442.193 1446.081 C 3442.193 1446.084 3442.193 1472.443 3442.193 1472.445 C 3441.887 1472.445 384.064 1472.445 383.758 1472.445 C 383.758 1472.443 383.758 1446.084 383.758 1446.081 Z"/>
<path id="S1_2_2" fill="#ffffff" fill-rule="evenodd" stroke="none" d="M 383.758 1890.991 C 384.064 1890.991 3441.887 1890.991 3442.193 1890.991 C 3442.193 1890.993 3442.193 1917.352 3442.193 1917.355 C 3441.887 1917.355 384.064 1917.355 383.758 1917.355 C 383.758 1917.352 383.758 1890.993 383.758 1890.991 Z"/>
<path id="S9" fill="#ffffff" fill-rule="evenodd" stroke="none" d="M 1347.701 390.581 C 1347.701 390.612 1347.106 1314.454 1347.106 1314.485 C 1347.118 1314.485 1426.458 1312.136 1466.690 1310.686 C 1540.536 1308.025 1591.925 1287.249 1656.189 1258.019 C 1693.374 1241.106 1724.503 1216.462 1750.764 1178.536 C 1766.060 1156.446 1776.228 1130.916 1780.270 1102.687 C 1789.304 1102.851 1783.257 1103.062 1780.270 1102.687 C 1789.305 1102.874 1789.305 1328.240 1789.305 1328.263 C 1789.236 1328.263 1103.427 1327.400 1103.358 1327.400 C 1103.358 1327.305 1103.395 375.564 1103.399 375.469 C 1103.415 375.457 1754.046 374.894 1754.111 374.894 C 1754.111 374.913 1754.255 566.982 1754.255 567.001 C 1745.673 568.294 1754.254 567.001 1754.255 567.001 C 1745.668 568.288 1719.532 523.761 1702.347 505.176 C 1678.027 477.176 1650.723 457.212 1618.778 439.511 C 1574.690 413.947 1527.193 390.188 1467.121 390.253 C 1427.314 390.298 1347.713 390.581 1347.701 390.581 Z"/>
<path id="S10" fill="#ffffff" fill-rule="evenodd" stroke="none" d="M 599.786 390.581 C 599.786 390.612 599.190 1327.595 599.190 1327.626 C 517.941 1327.551 355.467 1327.400 355.443 1327.400 C 355.443 1327.305 355.479 375.564 355.484 375.469 C 355.500 375.457 1006.131 374.894 1006.196 374.894 C 1006.196 374.913 1006.340 566.982 1006.340 567.001 C 997.758 568.294 1006.339 567.001 1006.340 567.001 C 997.752 568.288 971.617 523.761 954.432 505.176 C 930.112 477.176 902.808 457.212 870.863 439.511 C 826.774 413.947 779.278 390.188 719.206 390.253 C 679.398 390.298 599.798 390.581 599.786 390.581 Z"/>
<path id="S11" fill="#ffffff" fill-rule="evenodd" stroke="none" d="M 598.389 843.663 C 598.396 843.663 664.499 843.375 664.506 843.375 C 664.521 843.371 746.571 847.382 812.836 795.698 C 865.010 755.004 879.439 692.694 879.446 692.683 C 879.446 692.715 879.446 1008.707 879.446 1008.707 C 879.438 1008.697 856.685 953.932 800.455 908.814 C 748.405 867.049 664.786 853.853 664.773 853.847 C 664.766 853.847 598.389 853.334 598.389 853.334 C 598.390 853.333 598.389 843.664 598.389 843.663 Z"/>
<path id="S11_2" fill="#ffffff" fill-rule="evenodd" stroke="none" d="M 1340.823 843.663 C 1340.829 843.663 1406.932 843.375 1406.939 843.375 C 1406.954 843.371 1489.004 847.382 1555.269 795.698 C 1607.444 755.004 1621.872 692.694 1621.879 692.683 C 1621.879 692.715 1621.879 1008.707 1621.879 1008.707 C 1621.871 1008.697 1599.118 953.932 1542.888 908.814 C 1490.838 867.050 1407.219 853.853 1407.206 853.847 C 1407.199 853.847 1340.823 853.334 1340.823 853.334 C 1340.823 853.333 1340.823 843.664 1340.823 843.663 Z"/>
</g>
</svg>
