<?xml version="1.0" encoding="utf-8"?>
<!-- Generator: Moho 14.1 build 20231027 -->
<!DOCTYPE svg PUBLIC "-//W3C//DTD SVG 1.1//EN" "http://www.w3.org/Graphics/SVG/1.1/DTD/svg11.dtd">
<svg version="1.1" id="Frame_0" xmlns="http://www.w3.org/2000/svg" xmlns:xlink="http://www.w3.org/1999/xlink" width="32px" height="32px">
<path id="S3" fill="#f06731" fill-rule="evenodd" stroke="none" d="M 2.827 2.333 C 4.531 0.629 27.899 0.629 29.603 2.333 C 31.307 4.037 31.307 27.405 29.603 29.109 C 27.899 30.813 4.531 30.813 2.827 29.109 C 1.123 27.405 1.123 4.037 2.827 2.333 Z"/>
<path id="S10" fill="#ffffff" fill-rule="evenodd" stroke="none" d="M 15.392 7.024 C 15.392 7.024 15.380 25.295 15.380 25.296 C 13.796 25.295 10.627 25.292 10.627 25.292 C 10.627 25.290 10.628 6.731 10.628 6.729 C 10.628 6.729 23.315 6.718 23.317 6.718 C 23.317 6.718 23.319 10.463 23.319 10.464 C 23.319 10.464 23.152 10.489 23.152 10.489 C 23.152 10.489 22.642 9.621 22.307 9.258 C 21.833 8.712 21.301 8.323 20.678 7.978 C 19.818 7.479 18.892 7.016 17.720 7.017 C 16.944 7.018 15.392 7.024 15.392 7.024 Z"/>
<path id="S11" fill="#ffffff" fill-rule="evenodd" stroke="none" d="M 15.364 15.859 C 15.365 15.859 16.654 15.853 16.654 15.853 C 16.654 15.853 18.254 15.931 19.546 14.923 C 20.564 14.130 20.845 12.915 20.845 12.915 C 20.845 12.915 20.845 19.077 20.845 19.077 C 20.845 19.077 20.401 18.009 19.305 17.129 C 18.290 16.315 16.659 16.057 16.659 16.057 C 16.659 16.057 15.364 16.047 15.364 16.047 C 15.364 16.047 15.364 15.859 15.364 15.859 Z"/>
</svg>
